<!--?xml version="1.0" encoding="utf-8"?-->
<!-- Generator: Adobe Illustrator 18.1.1, SVG Export Plug-In . SVG Version: 6.00 Build 0)  -->

<svg version="1.1" id="_x32_" xmlns="http://www.w3.org/2000/svg" xmlns:xlink="http://www.w3.org/1999/xlink" x="0px" y="0px" viewBox="0 0 512 512" style="width: 32px; height: 32px; opacity: 1;" xml:space="preserve">
<style type="text/css">
	.st0{fill:#4B4B4B;}
</style>
<g>
	<path class="st0" d="M393.64,220.451C378.788,147.553,348.3,83.58,292.998,63.99c3.61-6.28,5.686-13.594,5.686-21.305
		c0-5.858-1.188-11.518-3.359-16.626c-3.248-7.668-8.641-14.154-15.455-18.763C273.072,2.688,264.793,0,256.006,0
		c-5.858,0-11.508,1.188-16.617,3.359c-7.676,3.248-14.18,8.641-18.772,15.455c-4.608,6.78-7.296,15.058-7.296,23.871
		c0,5.85,1.188,11.501,3.359,16.61c0.69,1.628,1.525,3.162,2.395,4.677c-55.35,19.564-85.854,83.563-100.706,156.478
		c-22.941,112.612-77.904,93.892-81.892,173.312c-2.188,43.892,171.235,54.876,219.529,54.876
		c48.286,0,221.706-10.984,219.517-54.876C471.543,314.344,416.573,333.063,393.64,220.451z M271.246,49.121
		c-1.232,2.946-3.36,5.506-6.005,7.288c-0.948,0.638-1.981,1.137-3.041,1.568c-2.042-0.103-4.101-0.181-6.194-0.181
		c-2.128,0-4.212,0.078-6.289,0.19c-0.042-0.026-0.094-0.026-0.146-0.043c-2.954-1.257-5.514-3.377-7.296-6.022
		c-1.783-2.654-2.809-5.763-2.809-9.235c0-2.326,0.448-4.471,1.292-6.434c1.232-2.955,3.36-5.497,6.005-7.297
		c2.654-1.783,5.763-2.817,9.243-2.817c2.318,0,4.454,0.456,6.427,1.3c2.954,1.249,5.514,3.36,7.296,6.005
		c1.784,2.654,2.809,5.772,2.809,9.243C272.539,45.003,272.091,47.14,271.246,49.121z" style="fill: rgb(255, 255, 255);"></path>
	<path class="st0" d="M190.716,461.923c7.719,28.842,34.01,50.077,65.29,50.077c31.272,0,57.564-21.235,65.283-50.077
		c-27.326,2.326-51.447,3.238-65.283,3.238C242.163,465.161,218.041,464.248,190.716,461.923z" style="fill: rgb(255, 255, 255);"></path>
</g>
</svg>
